PathFileType	4	(X/Y/Z)	D:\TRACE\v60_Jaco2_6-2-23\v60_baseline_4-platform.trc
DataRate	CameraRate	NumFrames	NumMarkers	Units	OrigDataRate	OrigDataStartFrame	OrigNumFrames
100.00	100.00	      74	5	mm	100.00	5688	      6500
Frame#	Time	Left_Front			Right_Front			Left_Aft			Right_Aft			Post			
		X1	Y1	Z1	X2	Y2	Z2	X3	Y3	Z3	X4	Y4	Z4	X5	Y5	Z5	

5688	56.870	-800.52142	8.91459	-638.77740	769.33130	10.12236	-644.37634	-708.67804	7.94837	496.10590	732.99860	6.52794	504.85822	-14.05453	1308.04260	-961.75177	
5689	56.880	-800.45197	8.99258	-638.87054	769.47076	10.14462	-644.37659	-708.67297	7.99480	496.07611	733.23865	6.70531	504.92813	-14.04386	1308.13660	-961.85706	
5690	56.890	-800.55219	9.03274	-638.75507	769.33722	10.26041	-644.42999	-708.69556	7.97051	496.08377	733.38995	6.87424	505.09192	-14.07247	1308.15039	-962.05859	
5691	56.900	-800.58783	8.96581	-638.74689	769.45874	10.19649	-644.35052	-708.69202	7.82601	496.16602	733.26270	6.83145	505.28125	-14.01157	1308.17065	-962.13684	
5692	56.910	-800.54102	8.90085	-638.81836	769.37860	10.18188	-644.38446	-708.62170	7.62973	496.16147	733.28064	6.83119	505.28946	-13.97385	1308.12134	-962.10706	
5693	56.920	-800.47864	8.90897	-638.91223	769.42206	10.10874	-644.35919	-708.55487	7.67479	496.15765	733.28442	6.83976	505.26389	-13.97859	1308.09375	-962.11554	
5694	56.930	-800.48151	9.00927	-638.80768	769.41949	10.14584	-644.37317	-708.53857	7.70817	496.13797	733.29340	6.88214	505.32950	-14.07528	1308.12756	-962.06281	
5695	56.940	-800.53223	9.05840	-638.78925	769.46399	10.15214	-644.37750	-708.55762	7.74343	496.14798	733.43256	6.96102	505.39542	-14.00551	1308.14319	-962.04199	
5696	56.950	-800.61108	8.92403	-638.79926	769.40741	10.20649	-644.40173	-708.63971	7.73314	496.16183	733.34778	6.92056	505.39554	-14.11395	1308.17627	-961.91461	
5697	56.960	-800.60529	8.91071	-638.76556	769.33710	10.16480	-644.40295	-708.63202	7.68197	496.18301	733.33850	6.93528	505.39969	-14.03280	1308.04626	-961.73401	
5698	56.970	-800.50452	8.79439	-638.86487	769.33490	10.17078	-644.39087	-708.58405	7.68293	496.14767	733.33752	6.93419	505.38623	-14.02847	1308.05750	-961.72235	
5699	56.980	-800.49872	8.94552	-638.79907	769.39136	10.08778	-644.39435	-708.73132	7.96559	496.03110	733.30597	6.92596	505.38876	-14.03486	1308.07947	-961.78003	
5700	56.990	-800.48999	9.00556	-638.81732	769.43353	10.13498	-644.38123	-708.66443	7.95466	496.10431	733.36603	6.95682	505.39136	-14.02614	1308.12000	-961.92975	
5701	57.000	-800.61053	9.08969	-638.66626	769.44128	10.18385	-644.39307	-708.71619	7.92559	496.11362	733.40094	6.93555	505.40405	-14.05653	1308.19031	-962.01227	
5702	57.010	-800.60266	8.91294	-638.74316	769.34650	10.22802	-644.43152	-708.70868	7.87355	496.15726	733.33087	6.93445	505.39273	-14.01397	1308.17578	-962.03381	
5703	57.020	-800.58069	8.88839	-638.75189	769.40118	10.23021	-644.39917	-708.67529	7.84980	496.14264	733.32434	6.94862	505.43112	-13.97990	1308.10815	-962.03534	
5704	57.030	-800.51935	9.03063	-638.79901	769.32703	10.33620	-644.43848	-708.69427	7.94670	496.10248	733.31348	6.97463	505.48865	-13.93366	1308.05518	-961.99524	
5705	57.040	-800.43079	9.03843	-638.82928	769.40527	10.31892	-644.44629	-708.68652	7.97618	496.11243	734.36572	7.43517	505.54758	-13.99717	1308.13074	-961.98517	
5706	57.050	-800.58337	8.91961	-638.81458	769.41779	10.14804	-644.40479	-708.68268	7.98180	496.11017	734.65588	7.83469	505.86423	-14.03853	1308.13953	-961.98633	
5707	57.060	-800.61810	8.65426	-638.83722	769.38977	10.17782	-644.35645	-708.74695	8.03480	496.12326	734.80695	8.36872	506.25818	-13.98986	1308.08179	-961.87958	
5708	57.070	-800.63947	8.63304	-638.88489	769.33893	10.11334	-644.39392	-708.76416	7.94731	496.12192	734.72144	8.39466	506.28815	-13.89655	1307.97522	-961.89777	
5709	57.080	-800.55841	8.69041	-638.93237	769.41132	10.16620	-644.39594	-708.67120	7.91059	496.13406	734.60309	8.35980	506.34741	-13.94070	1308.00244	-961.95190	
5710	57.090	-800.48376	8.89898	-638.83887	769.40094	10.20457	-644.43292	-708.62762	7.96300	496.15860	734.43420	8.35964	506.42096	-13.95349	1308.13245	-962.08026	
5711	57.100	-800.47546	9.00929	-638.82233	769.39996	10.29151	-644.44659	-708.63409	8.00173	496.19598	734.44098	8.40780	506.44968	-14.04020	1308.26904	-962.14276	
5712	57.110	-800.59564	8.92839	-638.78857	769.37781	10.28296	-644.42578	-708.67584	8.03538	496.20013	734.43793	8.43409	506.47482	-14.06600	1308.27783	-962.12268	
5713	57.120	-800.61279	8.73758	-638.89996	769.35846	10.16722	-644.40485	-708.78888	7.97467	496.15231	734.39081	8.38524	506.46057	-13.96348	1308.16345	-961.99994	
5714	57.130	-800.61017	8.67778	-638.86444	769.40582	10.18888	-644.35358	-708.75470	7.89145	496.14807	734.27924	8.25757	506.42209	-14.00344	1308.09473	-961.86853	
5715	57.140	-800.51367	8.80812	-638.90240	769.30389	10.22129	-644.41632	-708.67896	7.95113	496.12204	733.69257	8.07191	506.35434	-14.04145	1308.09424	-961.78656	
5716	57.150	-800.46863	8.97823	-638.82361	769.34033	10.27266	-644.46674	-708.60858	7.94886	496.12653	733.95428	7.84827	506.17590	-14.09149	1308.16223	-961.77386	
5717	57.160	-800.55927	8.91946	-638.78784	769.40570	10.27367	-644.44287	-708.56006	7.93804	496.16354	733.92468	7.84595	506.13330	-14.10311	1308.17700	-961.78540	
5718	57.170	-800.64819	8.82130	-638.74207	769.45135	10.26813	-644.38306	-708.59363	7.85891	496.19534	733.73450	7.75990	506.11636	-14.00031	1308.11108	-961.86652	
5719	57.180	-800.66425	8.78947	-638.79297	769.34973	10.21532	-644.46808	-708.68475	7.83389	496.16522	733.29840	7.74869	506.19055	-14.03114	1308.08093	-961.90753	
5720	57.190	-800.58887	8.76745	-638.80896	769.35065	10.20708	-644.38940	-708.62665	7.81884	496.04657	733.56342	7.50692	506.15002	-13.92213	1308.07031	-962.07098	
5721	57.200	-800.48090	8.83790	-638.81787	769.32916	10.24675	-644.39923	-708.62122	7.85453	496.07349	733.51495	7.49706	506.13388	-13.98776	1308.13342	-962.09796	
5722	57.210	-800.52740	8.92098	-638.75598	769.42401	10.23885	-644.42706	-708.55011	7.79536	496.04190	733.58490	7.55993	506.08444	-13.95530	1308.19263	-962.14685	
5723	57.220	-800.61969	8.85595	-638.77893	769.36981	10.25142	-644.44751	-708.65967	7.96019	496.07184	733.64514	7.68295	506.08835	-14.01474	1308.22485	-962.09753	
5724	57.230	-800.62280	8.81267	-638.80475	769.34912	10.26381	-644.43353	-708.68671	7.84581	496.08545	733.70135	7.63671	506.09848	-13.91206	1308.19006	-961.93140	
5725	57.240	-800.58807	8.72477	-638.88220	769.31287	10.21211	-644.41998	-708.71521	7.87843	496.13889	733.57727	7.54595	506.10727	-14.01752	1308.08032	-961.86664	
5726	57.250	-800.52527	8.78960	-638.88184	769.43274	10.11438	-644.36523	-708.58319	7.88791	496.14478	733.64630	7.60116	506.13324	-14.01175	1308.08093	-961.73328	
5727	57.260	-800.48492	8.89825	-638.86572	769.42065	10.20351	-644.37054	-708.64026	7.97025	496.13007	733.71002	7.69025	506.13565	-14.00710	1308.14417	-961.70123	
5728	57.270	-800.57397	8.97352	-638.73572	769.34912	10.31644	-644.45428	-708.65118	8.01183	496.13904	733.91235	7.85561	506.13412	-13.98661	1308.17236	-961.82452	
5729	57.280	-800.62927	8.83926	-638.80511	769.42670	10.31668	-644.41724	-708.69946	7.95172	496.13489	733.94336	7.84412	506.12292	-14.03840	1308.18555	-961.95221	
5730	57.290	-800.61279	8.79314	-638.82996	769.32367	10.27645	-644.47913	-708.68591	7.89098	496.13852	733.95459	7.76255	506.09811	-13.99687	1308.16394	-962.06012	
5731	57.300	-800.58838	8.75565	-638.83258	769.37549	10.18812	-644.43073	-708.64374	7.87613	496.16229	733.98303	7.73505	506.13306	-14.02025	1308.14917	-962.07190	
5732	57.310	-800.47650	8.76587	-638.90649	769.35046	10.19203	-644.41217	-708.63849	7.92501	496.13690	734.13623	7.82390	506.15530	-13.96333	1308.13831	-962.11432	
5733	57.320	-800.58887	8.90769	-638.81714	769.45038	10.20424	-644.34784	-708.60345	7.93584	496.18015	734.32788	8.00492	506.18753	-13.98287	1308.15051	-962.05597	
5734	57.330	-800.64221	8.86450	-638.74854	769.40240	10.25100	-644.44116	-708.63678	7.97025	496.16391	734.47717	8.39349	505.89661	-13.95704	1308.14587	-962.01569	
5735	57.340	-800.66589	8.80299	-638.77228	769.33527	10.27928	-644.47003	-708.68280	7.89234	496.14841	734.63428	8.27249	506.24664	-14.00771	1308.09546	-961.88275	
5736	57.350	-800.59229	8.73886	-638.81891	769.37366	10.21387	-644.43073	-708.68182	7.90752	496.12021	734.48230	7.99905	506.34302	-13.99787	1308.08020	-961.79858	
5737	57.360	-800.55835	8.77516	-638.88184	769.36432	10.20767	-644.41296	-708.59698	7.89476	496.13464	734.53723	8.03983	506.30124	-13.96724	1308.06787	-961.80048	
5738	57.370	-800.47076	8.81288	-638.90741	769.38062	10.23107	-644.44983	-708.58173	7.93312	496.12543	734.61023	8.04581	506.27783	-14.04924	1308.07886	-961.88129	
5739	57.380	-800.60663	8.95384	-638.75171	769.42365	10.23628	-644.39655	-708.57867	7.92721	496.13757	734.65399	8.03688	506.27261	-14.02050	1308.12427	-962.04218	
5740	57.390	-800.62946	8.82429	-638.75409	769.39825	10.26565	-644.43677	-708.61633	7.84645	496.17258	734.77686	8.10487	506.25464	-14.01805	1308.22363	-962.14282	
5741	57.400	-800.62994	8.80319	-638.80292	769.30768	10.33801	-644.46179	-708.66443	7.85579	496.19955	734.78821	8.14923	506.26279	-14.02418	1308.17834	-962.10016	
5742	57.410	-800.53583	8.91167	-638.85364	769.30365	10.25911	-644.45972	-708.64191	7.84333	496.14056	734.79791	8.14497	506.28049	-14.01665	1308.20667	-962.03552	
5743	57.420	-800.43134	9.14729	-638.88690	769.38770	10.28698	-644.40833	-708.61438	7.87382	496.15350	733.43726	6.96980	505.89914	-13.93804	1308.15527	-961.94739	
5744	57.430	-800.47192	9.18327	-638.79456	769.42487	10.27660	-644.39075	-708.58789	7.92419	496.14349	733.48462	7.00680	505.86957	-14.05220	1308.13123	-961.77795	
5745	57.440	-800.58850	8.91930	-638.78992	769.40790	10.05212	-644.31342	-708.68066	7.89942	496.10071	733.57031	7.05692	505.86722	-14.19306	1308.19617	-961.67242	
5746	57.450	-800.63312	8.70708	-638.84796	769.50287	9.98411	-644.30182	-708.71130	7.90751	496.09344	733.51855	7.02895	505.84009	-14.12895	1308.08984	-961.65137	
5747	57.460	-800.54425	8.68657	-638.90729	769.40417	10.19050	-644.42743	-708.66144	7.90952	496.13965	733.51276	7.00388	505.82635	-13.96320	1307.99158	-961.59875	
5748	57.470	-800.44080	9.01049	-638.80994	769.40399	10.16915	-644.41827	-708.64948	7.89784	496.06409	733.51056	6.99321	505.85287	-13.96419	1308.04810	-961.80481	
5749	57.480	-800.47479	9.17864	-638.76239	769.33038	10.15607	-644.43268	-708.77728	8.13533	495.88116	733.55786	7.04968	505.85110	-14.07013	1308.16992	-962.06409	
5750	57.490	-800.51520	9.03738	-638.72675	769.45593	10.12290	-644.34857	-708.53870	7.75331	496.16824	733.53296	7.04476	505.84512	-14.00142	1308.23926	-962.26270	
5751	57.500	-800.65979	8.86125	-638.73419	769.34875	10.24428	-644.37964	-708.64331	7.70415	496.18030	733.47827	7.03161	505.83386	-14.02459	1308.20679	-962.28717	
5752	57.510	-800.61658	8.77190	-638.85651	769.30231	10.11237	-644.39069	-708.63654	7.52825	496.14679	733.47443	6.99417	505.88135	-13.95636	1308.14587	-962.23761	
5753	57.520	-800.54816	8.88834	-638.87091	769.44470	10.07792	-644.36914	-708.55585	7.51092	496.08328	733.43109	6.93014	505.91159	-13.99735	1308.14404	-962.14404	
5754	57.530	-800.43915	9.08308	-638.85663	769.46008	10.11196	-644.35236	-708.42719	7.55105	496.15891	733.50140	6.98082	505.88156	-13.98691	1308.14294	-961.96234	
5755	57.540	-800.45984	9.05990	-638.77118	769.41321	10.18673	-644.40912	-708.55005	7.83580	496.14832	733.61469	7.11987	505.83829	-14.08930	1308.13391	-961.77032	
5756	57.550	-800.59912	8.89129	-638.73853	769.36255	10.23517	-644.42188	-708.61554	7.88801	496.13022	733.62543	7.13361	505.83469	-14.04727	1308.10388	-961.55560	
5757	57.560	-800.65948	8.83507	-638.75598	769.45490	10.15113	-644.35803	-708.66022	7.78747	496.11270	733.50690	7.07416	505.83884	-14.01814	1308.05969	-961.54901	
5758	57.570	-800.55060	8.81459	-638.87982	769.39575	10.09250	-644.38257	-708.67365	7.72913	496.10449	733.44678	6.99850	505.83582	-14.05467	1308.05627	-961.62561	
5759	57.580	-800.44928	8.94770	-638.90118	769.35413	10.17735	-644.40527	-708.62878	7.80037	496.14874	733.46240	6.99074	505.88757	-14.08673	1308.14233	-961.76733	
5760	57.590	-800.42822	9.03253	-638.84698	769.43066	10.15459	-644.35327	-708.59717	7.85707	496.21237	733.57367	7.06254	505.87592	-13.94829	1308.20886	-961.98645	
5761	57.600	-800.51642	9.03149	-638.73285	769.41205	10.14945	-644.37634	-708.63489	7.88130	496.23355	733.66119	7.10046	505.85294	-14.04998	1308.25269	-962.15033	
